<?xml version="1.0" encoding="UTF-8" standalone="no"?>
<!-- Created with Inkscape (http://www.inkscape.org/) -->

<svg
   width="71.645241mm"
   height="46.125347mm"
   viewBox="0 0 270.78517 174.33203"
   version="1.1"
   id="svg1"
   inkscape:version="1.4.3 (0d15f75, 2025-12-25)"
   sodipodi:docname="(mid-left-3).svg"
   xmlns:inkscape="http://www.inkscape.org/namespaces/inkscape"
   xmlns:sodipodi="http://sodipodi.sourceforge.net/DTD/sodipodi-0.dtd"
   xmlns="http://www.w3.org/2000/svg"
   xmlns:svg="http://www.w3.org/2000/svg">
  <sodipodi:namedview
     id="namedview1"
     pagecolor="#ffffff"
     bordercolor="#000000"
     borderopacity="0.25"
     inkscape:showpageshadow="2"
     inkscape:pageopacity="0.0"
     inkscape:pagecheckerboard="0"
     inkscape:deskcolor="#d1d1d1"
     inkscape:document-units="mm"
     inkscape:zoom="1.4142136"
     inkscape:cx="98.287842"
     inkscape:cy="-63.993163"
     inkscape:window-width="1920"
     inkscape:window-height="1009"
     inkscape:window-x="-8"
     inkscape:window-y="-8"
     inkscape:window-maximized="1"
     inkscape:current-layer="layer10">
    <inkscape:page
       x="0"
       y="0"
       width="270.78519"
       height="174.33203"
       id="page2"
       margin="0"
       bleed="0" />
  </sodipodi:namedview>
  <defs
     id="defs1" />
  <g
     inkscape:groupmode="layer"
     id="layer10"
     inkscape:label="mid-left-three"
     transform="translate(-268,-270.32813)"
     style="display:inline">
    <path
       id="path36"
       style="display:inline;fill:#4d4d4d;fill-opacity:1;stroke-width:1.00756"
       d="M 538.78517,444.59766 H 268 v 0.0625 h 270.78517 z" />
    <path
       id="path35"
       style="display:inline;fill:#4d4d4d;fill-opacity:1;stroke-width:1.00756"
       d="M 268,270.33594 V 444.59766 H 538.78517 V 270.33594 Z" />
    <path
       id="path4-1-6-3-83-2-2"
       style="display:inline;fill:#ffcc00;stroke-width:1.03039"
       d="m 477.58693,392.43583 c 1.9e-4,2.38273 1.86807,4.31426 4.17229,4.31449 2.305,9.1e-4 4.17409,-1.93095 4.1743,-4.31449 -1.6e-4,-2.38357 -1.86926,-4.31552 -4.1743,-4.31459 -2.30425,2.3e-4 -4.17215,1.93183 -4.17229,4.31459 z m 0.12656,9.90733 c -9.6e-4,2.38355 1.86725,4.31642 4.17227,4.31664 2.30581,9.2e-4 4.17525,-1.93225 4.1743,-4.31664 -1.4e-4,-2.38357 -1.86926,-4.31552 -4.1743,-4.31459 -2.30424,2.3e-4 -4.17213,1.93183 -4.17227,4.31459 z m 0.17073,9.75619 c 1.6e-4,2.38276 1.86804,4.31437 4.17229,4.31459 2.30426,-2e-4 4.17216,-1.93181 4.17229,-4.31459 -1.3e-4,-2.38277 -1.86803,-4.31437 -4.17229,-4.31459 -2.30425,2.3e-4 -4.17213,1.93183 -4.17229,4.31459 z m 9.66034,-0.6432 c 1.6e-4,2.38276 1.86804,4.31434 4.17229,4.3146 2.30425,-2.5e-4 4.17214,-1.93184 4.17229,-4.3146 -2e-4,-2.38272 -1.86807,-4.31427 -4.17229,-4.31447 -2.30422,2.1e-4 -4.17208,1.93175 -4.17229,4.31447 z m 0.0925,-9.60291 c 1.5e-4,2.38358 1.86926,4.31551 4.17429,4.31457 2.30425,-2.1e-4 4.17214,-1.9318 4.17229,-4.31457 -1.5e-4,-2.38276 -1.86804,-4.31436 -4.17229,-4.31458 -2.30503,-9.3e-4 -4.17414,1.93099 -4.17429,4.31458 z m 0.16872,-9.65338 c 1.5e-4,2.38276 1.86803,4.31435 4.17228,4.31456 2.30504,9.4e-4 4.17414,-1.931 4.17429,-4.31456 9e-4,-2.38436 -1.86851,-4.31746 -4.17429,-4.31653 -2.30499,2e-4 -4.17318,1.93299 -4.17228,4.31653 z m 8.93516,-0.18138 c 1.4e-4,2.38276 1.86804,4.31436 4.17228,4.31459 2.30424,-2.3e-4 4.17213,-1.93183 4.17229,-4.31459 -1.6e-4,-2.38275 -1.86805,-4.31435 -4.17229,-4.31458 -2.30424,2.3e-4 -4.17214,1.93183 -4.17228,4.31458 z m 0.12655,9.90939 c 1.4e-4,2.38277 1.86804,4.31438 4.17229,4.31459 2.30425,-2.1e-4 4.17213,-1.93182 4.17229,-4.31459 9.5e-4,-2.38355 -1.86727,-4.31642 -4.17229,-4.31665 -2.30503,2.3e-4 -4.17325,1.93309 -4.17229,4.31665 z m 0.16874,9.75414 c 1.4e-4,2.38274 1.86803,4.31436 4.17228,4.3146 2.30503,9.1e-4 4.17415,-1.93102 4.1743,-4.3146 -1.5e-4,-2.38358 -1.86927,-4.31551 -4.1743,-4.31458 -2.30425,2.1e-4 -4.17214,1.93182 -4.17228,4.31458 z m 9.66034,-0.6432 c 1.4e-4,2.38275 1.86804,4.31435 4.17228,4.31458 2.30503,9.1e-4 4.17415,-1.93101 4.17429,-4.31458 -1.9e-4,-2.38355 -1.86929,-4.31541 -4.17429,-4.3145 -2.30421,2.4e-4 -4.17209,1.93176 -4.17228,4.3145 z m 0.0944,-9.60291 c 1.3e-4,2.38276 1.86803,4.31435 4.17229,4.31459 2.30423,-2.4e-4 4.17213,-1.93183 4.17227,-4.31459 -1.4e-4,-2.38276 -1.86804,-4.31436 -4.17227,-4.31457 -2.30426,2.1e-4 -4.17216,1.93181 -4.17229,4.31457 z m 0.16871,-9.65338 c 1.4e-4,2.38275 1.86804,4.31434 4.17229,4.31459 2.30424,-2.4e-4 4.17213,-1.93184 4.17228,-4.31459 -2e-4,-2.38273 -1.86807,-4.31427 -4.17228,-4.31448 -2.30422,2.1e-4 -4.1721,1.93175 -4.17229,4.31448 z m 9.25455,-0.34675 c 1.4e-4,2.38278 1.86803,4.31437 4.17228,4.31459 2.30425,-2.2e-4 4.17215,-1.93181 4.17228,-4.31459 -1.3e-4,-2.38275 -1.86803,-4.31434 -4.17228,-4.31458 -2.30425,2.4e-4 -4.17214,1.93183 -4.17228,4.31458 z m 0.12655,9.90743 c 1.5e-4,2.38276 1.86805,4.31436 4.17229,4.31458 2.30424,-2.2e-4 4.17214,-1.93182 4.17228,-4.31458 -1.4e-4,-2.38275 -1.86804,-4.31435 -4.17228,-4.31459 -2.30424,2.3e-4 -4.17214,1.93184 -4.17229,4.31459 z m 0.16875,9.75414 c -9.1e-4,2.38433 1.86851,4.31747 4.17429,4.31654 2.30499,-2.2e-4 4.1732,-1.93302 4.17229,-4.31654 -1.5e-4,-2.38277 -1.86804,-4.31436 -4.17229,-4.31459 -2.30503,-9.3e-4 -4.17416,1.931 -4.17429,4.31459 z m 9.66234,-0.64114 c 1.4e-4,2.38276 1.86803,4.31434 4.17228,4.31458 2.30426,-2.3e-4 4.17215,-1.93181 4.1723,-4.31458 -1.5e-4,-2.38278 -1.86804,-4.31437 -4.1723,-4.31459 -2.30425,2.3e-4 -4.17214,1.93182 -4.17228,4.31459 z m 0.0924,-9.60291 c 2.1e-4,2.38272 1.86807,4.31425 4.17229,4.31447 2.305,9.2e-4 4.1741,-1.93093 4.17429,-4.31447 -1.4e-4,-2.38358 -1.86926,-4.31551 -4.17429,-4.31458 -2.30424,2.1e-4 -4.17214,1.93181 -4.17229,4.31458 z m 0.16872,-9.65544 c 1.4e-4,2.38274 1.86803,4.31433 4.17228,4.31458 2.30425,-2.5e-4 4.17213,-1.93184 4.17229,-4.31458 -2.1e-4,-2.38274 -1.86807,-4.31426 -4.17229,-4.31449 -2.30422,2.3e-4 -4.17209,1.93175 -4.17228,4.31449 z"
       sodipodi:nodetypes="cccccccccccccccccccccccccccccccccccccccccccccccccccccccccccccccccccccccccccccccccccccccccc" />
    <path
       id="path4-8-9-6"
       style="display:inline;fill:#ffcc00;stroke-width:1.00682"
       d="m 508.80844,272.31271 a 4.1799607,4.1125427 0 0 0 -4.1796,4.11216 4.1799607,4.1125427 0 0 0 4.1796,4.11414 4.1799607,4.1125427 0 0 0 4.1797,-4.11414 4.1799607,4.1125427 0 0 0 -4.1797,-4.11216 z m -9.5976,0.12473 a 4.1799607,4.1125427 0 0 0 -4.1817,4.11216 4.1799607,4.1125427 0 0 0 4.1817,4.11413 4.1799607,4.1125427 0 0 0 4.1797,-4.11413 4.1799607,4.1125427 0 0 0 -4.1797,-4.11216 z m -9.4512,0.16828 a 4.1799607,4.1125427 0 0 0 -4.1797,4.11216 4.1799607,4.1125427 0 0 0 4.1797,4.11217 4.1799607,4.1125427 0 0 0 4.1797,-4.11217 4.1799607,4.1125427 0 0 0 -4.1797,-4.11216 z m -9.8047,0.22175 a 4.1799607,4.1125427 0 0 0 -4.1797,4.11215 4.1799607,4.1125427 0 0 0 4.1797,4.11217 4.1799607,4.1125427 0 0 0 4.1797,-4.11217 4.1799607,4.1125427 0 0 0 -4.1797,-4.11215 z m 10.4278,9.29938 a 4.1799607,4.1125427 0 0 0 -4.1797,4.11215 4.1799607,4.1125427 0 0 0 4.1797,4.11217 4.1799607,4.1125427 0 0 0 4.1796,-4.11217 4.1799607,4.1125427 0 0 0 -4.1796,-4.11215 z m 9.3027,0.0911 a 4.1799607,4.1125427 0 0 0 -4.1797,4.11413 4.1799607,4.1125427 0 0 0 4.1797,4.11216 4.1799607,4.1125427 0 0 0 4.1797,-4.11216 4.1799607,4.1125427 0 0 0 -4.1797,-4.11413 z m -19.3672,0.0495 a 4.1799607,4.1125427 0 0 0 -4.1797,4.11217 4.1799607,4.1125427 0 0 0 4.1797,4.11217 4.1799607,4.1125427 0 0 0 4.1797,-4.11217 4.1799607,4.1125427 0 0 0 -4.1797,-4.11217 z m 28.7188,0.11682 a 4.1799607,4.1125427 0 0 0 -4.1797,4.11216 4.1799607,4.1125427 0 0 0 4.1797,4.11413 4.1799607,4.1125427 0 0 0 4.1816,-4.11413 4.1799607,4.1125427 0 0 0 -4.1816,-4.11216 z m 0.1757,8.80639 a 4.1799607,4.1125427 0 0 0 -4.1797,4.11216 4.1799607,4.1125427 0 0 0 4.1797,4.11217 4.1799607,4.1125427 0 0 0 4.1797,-4.11217 4.1799607,4.1125427 0 0 0 -4.1797,-4.11216 z m -9.5996,0.12474 a 4.1799607,4.1125427 0 0 0 -4.1797,4.11215 4.1799607,4.1125427 0 0 0 4.1797,4.11216 4.1799607,4.1125427 0 0 0 4.1817,-4.11216 4.1799607,4.1125427 0 0 0 -4.1817,-4.11215 z m -9.4492,0.1663 a 4.1799607,4.1125427 0 0 0 -4.1797,4.11216 4.1799607,4.1125427 0 0 0 4.1797,4.11413 4.1799607,4.1125427 0 0 0 4.1797,-4.11413 4.1799607,4.1125427 0 0 0 -4.1797,-4.11216 z m -9.8047,0.22175 a 4.1799607,4.1125427 0 0 0 -4.1816,4.11215 4.1799607,4.1125427 0 0 0 4.1816,4.11414 4.1799607,4.1125427 0 0 0 4.1797,-4.11414 4.1799607,4.1125427 0 0 0 -4.1797,-4.11215 z m 10.4278,9.29937 a 4.1799607,4.1125427 0 0 0 -4.1797,4.11216 4.1799607,4.1125427 0 0 0 4.1797,4.11413 4.1799607,4.1125427 0 0 0 4.1796,-4.11413 4.1799607,4.1125427 0 0 0 -4.1796,-4.11216 z m 9.3027,0.0931 a 4.1799607,4.1125427 0 0 0 -4.1797,4.11216 4.1799607,4.1125427 0 0 0 4.1797,4.11215 4.1799607,4.1125427 0 0 0 4.1797,-4.11215 4.1799607,4.1125427 0 0 0 -4.1797,-4.11216 z m -19.3672,0.0495 a 4.1799607,4.1125427 0 0 0 -4.1797,4.11215 4.1799607,4.1125427 0 0 0 4.1797,4.11217 4.1799607,4.1125427 0 0 0 4.1797,-4.11217 4.1799607,4.1125427 0 0 0 -4.1797,-4.11215 z m 28.7188,0.11681 a 4.1799607,4.1125427 0 0 0 -4.1797,4.11216 4.1799607,4.1125427 0 0 0 4.1797,4.11216 4.1799607,4.1125427 0 0 0 4.1796,-4.11216 4.1799607,4.1125427 0 0 0 -4.1796,-4.11216 z m 0.3359,9.12119 a 4.1799607,4.1125427 0 0 0 -4.1797,4.11215 4.1799607,4.1125427 0 0 0 4.1797,4.11216 4.1799607,4.1125427 0 0 0 4.1797,-4.11216 4.1799607,4.1125427 0 0 0 -4.1797,-4.11215 z m -9.5977,0.12473 a 4.1799607,4.1125427 0 0 0 -4.1797,4.11216 4.1799607,4.1125427 0 0 0 4.1797,4.11215 4.1799607,4.1125427 0 0 0 4.1797,-4.11215 4.1799607,4.1125427 0 0 0 -4.1797,-4.11216 z m -9.4492,0.16631 a 4.1799607,4.1125427 0 0 0 -4.1816,4.11414 4.1799607,4.1125427 0 0 0 4.1816,4.11216 4.1799607,4.1125427 0 0 0 4.1797,-4.11216 4.1799607,4.1125427 0 0 0 -4.1797,-4.11414 z m -9.8066,0.22174 a 4.1799607,4.1125427 0 0 0 -4.1797,4.11414 4.1799607,4.1125427 0 0 0 4.1797,4.11216 4.1799607,4.1125427 0 0 0 4.1797,-4.11216 4.1799607,4.1125427 0 0 0 -4.1797,-4.11414 z m 10.4277,9.30135 a 4.1799607,4.1125427 0 0 0 -4.1797,4.11216 4.1799607,4.1125427 0 0 0 4.1797,4.11217 4.1799607,4.1125427 0 0 0 4.1797,-4.11217 4.1799607,4.1125427 0 0 0 -4.1797,-4.11216 z m 9.3027,0.091 a 4.1799607,4.1125427 0 0 0 -4.1796,4.11216 4.1799607,4.1125427 0 0 0 4.1796,4.11413 4.1799607,4.1125427 0 0 0 4.1797,-4.11413 4.1799607,4.1125427 0 0 0 -4.1797,-4.11216 z m -19.3671,0.0495 a 4.1799607,4.1125427 0 0 0 -4.1797,4.11216 4.1799607,4.1125427 0 0 0 4.1797,4.11215 4.1799607,4.1125427 0 0 0 4.1796,-4.11215 4.1799607,4.1125427 0 0 0 -4.1796,-4.11216 z m 28.7207,0.11681 a 4.1799607,4.1125427 0 0 0 -4.1797,4.11215 4.1799607,4.1125427 0 0 0 4.1797,4.11216 4.1799607,4.1125427 0 0 0 4.1796,-4.11216 4.1799607,4.1125427 0 0 0 -4.1796,-4.11215 z" />
    <path
       id="path4-3-0-5"
       style="display:inline;fill:#ffcc00;stroke-width:1.03402"
       d="m 529.0128,271.22289 c -2.41155,1.4e-4 -4.36648,1.85881 -4.36671,4.15167 2.2e-4,2.29287 1.95515,4.15153 4.36671,4.15167 2.41155,-1.5e-4 4.36648,-1.8588 4.3667,-4.15168 -2.3e-4,-2.29285 -1.95516,-4.15152 -4.3667,-4.15166 z m -10.24337,0.22387 c -2.41154,1.4e-4 -4.36647,1.85881 -4.3667,4.15166 2.2e-4,2.29288 1.95515,4.15154 4.3667,4.15169 2.41155,-1.4e-4 4.36648,-1.8588 4.3667,-4.15169 -2.3e-4,-2.29285 -1.95516,-4.15151 -4.3667,-4.15166 z m 10.36401,9.38873 c -2.41154,1.4e-4 -4.36647,1.8588 -4.3667,4.15167 2.3e-4,2.29285 1.95516,4.15151 4.3667,4.15166 2.4115,-2e-4 4.36637,-1.85884 4.3666,-4.15166 -2.3e-4,-2.29283 -1.9551,-4.15147 -4.3666,-4.15167 z m -9.98446,0.14195 c -2.41154,1.5e-4 -4.36647,1.85881 -4.3667,4.15166 2.2e-4,2.29288 1.95515,4.15153 4.3667,4.15168 2.41156,-1.5e-4 4.36649,-1.8588 4.36671,-4.15168 -2.3e-4,-2.29285 -1.95516,-4.15151 -4.36671,-4.15166 z m 10.02103,9.48197 c -2.41154,1.4e-4 -4.36647,1.8588 -4.3667,4.15167 -9.3e-4,2.29363 1.95434,4.15351 4.3667,4.15365 2.41237,-1.4e-4 4.36763,-1.86002 4.3667,-4.15365 -2.3e-4,-2.29287 -1.95515,-4.15152 -4.3667,-4.15167 z m -9.97819,0.0447 c -2.41233,-9.1e-4 -4.36846,1.85806 -4.36869,4.15166 -9.3e-4,2.29439 1.95555,4.15456 4.36869,4.15366 2.41237,-1.5e-4 4.36763,-1.86002 4.3667,-4.15366 -2.3e-4,-2.29287 -1.95516,-4.15152 -4.3667,-4.15166 z m 10.18095,9.63669 c -2.41154,1.6e-4 -4.36647,1.85881 -4.3667,4.15167 -9.3e-4,2.29365 1.95433,4.15352 4.3667,4.15366 2.41233,-1.8e-4 4.36753,-1.86005 4.3666,-4.15366 -2.3e-4,-2.29283 -1.9551,-4.15146 -4.3666,-4.15167 z m -9.8014,-0.10409 c -2.41154,1.4e-4 -4.36647,1.8588 -4.3667,4.15167 2.3e-4,2.29285 1.95516,4.1515 4.3667,4.15166 2.41155,-1.5e-4 4.36647,-1.85881 4.3667,-4.15166 -2.3e-4,-2.29287 -1.95515,-4.15152 -4.3667,-4.15167 z m 9.92522,9.79979 c -2.41314,-9.1e-4 -4.36962,1.85928 -4.36868,4.15367 2.3e-4,2.29359 1.95636,4.15256 4.36868,4.15166 2.41155,-1.5e-4 4.36648,-1.85881 4.36671,-4.15166 9.4e-4,-2.29365 -1.95434,-4.15353 -4.36671,-4.15367 z m -9.71501,0.0447 c -2.41237,1.4e-4 -4.36765,1.86002 -4.36671,4.15367 2.3e-4,2.29286 1.95516,4.15152 4.36671,4.15166 2.41154,-1.4e-4 4.36647,-1.8588 4.3667,-4.15166 9.4e-4,-2.29365 -1.95434,-4.15353 -4.3667,-4.15367 z m 9.74518,9.4355 c -2.41154,1.4e-4 -4.41066,1.81401 -4.41089,4.10687 2.2e-4,2.29287 2.13192,4.24113 4.54347,4.24127 2.41156,-1.4e-4 4.2339,-1.9484 4.23412,-4.24127 -2.3e-4,-2.29286 -1.95515,-4.10673 -4.3667,-4.10687 z m -9.36563,0.097 c -2.41154,1.5e-4 -4.36647,1.8588 -4.3667,4.15167 2.3e-4,2.29285 1.95516,4.15151 4.3667,4.15166 2.4115,-1.9e-4 4.36637,-1.85884 4.3666,-4.15166 -2.3e-4,-2.29285 -1.9551,-4.15147 -4.3666,-4.15167 z"
       sodipodi:nodetypes="cccccccccccccccccccccccccccccccccccccccccccccccccccccccccccc" />
    <path
       id="path4-3-9-7-3"
       style="display:inline;fill:#ffcc00;stroke-width:1.03402"
       d="m 529.39559,329.35087 c -2.41155,1.4e-4 -4.36648,1.8588 -4.36671,4.15166 2.2e-4,2.29287 1.95515,4.15153 4.36671,4.15169 2.41155,-1.6e-4 4.36648,-1.8588 4.3667,-4.15169 -2.3e-4,-2.29286 -1.95516,-4.15151 -4.3667,-4.15166 z m -10.24337,0.22387 c -2.41154,1.4e-4 -4.36647,1.85881 -4.3667,4.15166 2.2e-4,2.29288 1.95515,4.15154 4.3667,4.15168 2.41155,-1.4e-4 4.36648,-1.8588 4.3667,-4.15168 -2.3e-4,-2.29285 -1.95516,-4.15152 -4.3667,-4.15166 z m 10.36401,9.38873 c -2.41154,1.4e-4 -4.36647,1.8588 -4.3667,4.15166 2.3e-4,2.29286 1.95516,4.15151 4.3667,4.15167 2.4115,-2e-4 4.36637,-1.85884 4.3666,-4.15167 -2.3e-4,-2.29282 -1.9551,-4.15147 -4.3666,-4.15166 z m -9.98446,0.14194 c -2.41154,1.4e-4 -4.36647,1.85881 -4.3667,4.15167 2.2e-4,2.29287 1.95515,4.15153 4.3667,4.15167 2.41156,-1.5e-4 4.36649,-1.8588 4.36671,-4.15168 -2.3e-4,-2.29285 -1.95516,-4.15152 -4.36671,-4.15166 z m 10.02103,9.48199 c -2.41154,1.4e-4 -4.36647,1.8588 -4.3667,4.15166 -9.3e-4,2.29363 1.95434,4.15351 4.3667,4.15365 2.41237,-1.4e-4 4.36763,-1.86002 4.3667,-4.15365 -2.3e-4,-2.29286 -1.95515,-4.15152 -4.3667,-4.15166 z m -9.97819,0.0447 c -2.41233,-9e-4 -4.36846,1.85806 -4.36869,4.15166 -9.3e-4,2.29438 1.95555,4.15456 4.36869,4.15366 2.41237,-1.5e-4 4.36763,-1.86003 4.3667,-4.15366 -2.3e-4,-2.29286 -1.95516,-4.15152 -4.3667,-4.15166 z m 10.18095,9.6367 c -2.41154,1.5e-4 -4.36647,1.85881 -4.3667,4.15167 -9.3e-4,2.29364 1.95433,4.15352 4.3667,4.15366 2.41233,-1.9e-4 4.36753,-1.86006 4.3666,-4.15366 -2.3e-4,-2.29283 -1.9551,-4.15147 -4.3666,-4.15167 z m -9.8014,-0.10409 c -2.41154,1.4e-4 -4.36647,1.85879 -4.3667,4.15166 2.3e-4,2.29285 1.95516,4.15151 4.3667,4.15166 2.41155,-1.5e-4 4.36647,-1.85881 4.3667,-4.15166 -2.3e-4,-2.29287 -1.95515,-4.15152 -4.3667,-4.15166 z m 9.92522,9.79978 c -2.41314,-9e-4 -4.36962,1.85928 -4.36868,4.15367 2.3e-4,2.29359 1.95636,4.15256 4.36868,4.15166 2.41155,-1.5e-4 4.36648,-1.85881 4.36671,-4.15166 9.4e-4,-2.29365 -1.95434,-4.15353 -4.36671,-4.15367 z m -9.71501,0.0447 c -2.41237,1.4e-4 -4.36765,1.86002 -4.36671,4.15367 2.3e-4,2.29285 1.95516,4.15152 4.36671,4.15166 2.41154,-1.4e-4 4.36647,-1.85881 4.3667,-4.15166 9.4e-4,-2.29365 -1.95434,-4.15353 -4.3667,-4.15367 z m 9.74518,9.43551 c -2.41154,1.4e-4 -4.41066,1.81401 -4.41089,4.10687 2.2e-4,2.29287 2.13192,4.24113 4.54347,4.24127 2.41156,-1.4e-4 4.2339,-1.9484 4.23412,-4.24127 -2.3e-4,-2.29286 -1.95515,-4.10673 -4.3667,-4.10687 z m -9.36563,0.097 c -2.41154,1.5e-4 -4.36647,1.8588 -4.3667,4.15167 2.3e-4,2.29285 1.95516,4.15152 4.3667,4.15166 2.4115,-1.9e-4 4.36637,-1.85884 4.3666,-4.15166 -2.3e-4,-2.29284 -1.9551,-4.15147 -4.3666,-4.15167 z"
       sodipodi:nodetypes="cccccccccccccccccccccccccccccccccccccccccccccccccccccccccccc" />
    <path
       id="path4-8-2-8-9"
       style="display:inline;fill:#ffcc00;stroke-width:1.00682"
       d="m 509.22967,330.06059 a 4.1799607,4.1125427 0 0 0 -4.1796,4.11215 4.1799607,4.1125427 0 0 0 4.1796,4.11416 4.1799607,4.1125427 0 0 0 4.1797,-4.11416 4.1799607,4.1125427 0 0 0 -4.1797,-4.11215 z m -9.5976,0.12473 a 4.1799607,4.1125427 0 0 0 -4.1817,4.11216 4.1799607,4.1125427 0 0 0 4.1817,4.11413 4.1799607,4.1125427 0 0 0 4.1797,-4.11413 4.1799607,4.1125427 0 0 0 -4.1797,-4.11216 z m -9.4512,0.16828 a 4.1799607,4.1125427 0 0 0 -4.1797,4.11216 4.1799607,4.1125427 0 0 0 4.1797,4.11217 4.1799607,4.1125427 0 0 0 4.1797,-4.11217 4.1799607,4.1125427 0 0 0 -4.1797,-4.11216 z m -9.8047,0.22175 a 4.1799607,4.1125427 0 0 0 -4.1797,4.11215 4.1799607,4.1125427 0 0 0 4.1797,4.11217 4.1799607,4.1125427 0 0 0 4.1797,-4.11217 4.1799607,4.1125427 0 0 0 -4.1797,-4.11215 z m 10.4278,9.29937 a 4.1799607,4.1125427 0 0 0 -4.1797,4.11217 4.1799607,4.1125427 0 0 0 4.1797,4.11216 4.1799607,4.1125427 0 0 0 4.1796,-4.11216 4.1799607,4.1125427 0 0 0 -4.1796,-4.11217 z m 9.3027,0.0911 a 4.1799607,4.1125427 0 0 0 -4.1797,4.11413 4.1799607,4.1125427 0 0 0 4.1797,4.11216 4.1799607,4.1125427 0 0 0 4.1797,-4.11216 4.1799607,4.1125427 0 0 0 -4.1797,-4.11413 z m -19.3672,0.0495 a 4.1799607,4.1125427 0 0 0 -4.1797,4.11216 4.1799607,4.1125427 0 0 0 4.1797,4.11217 4.1799607,4.1125427 0 0 0 4.1797,-4.11217 4.1799607,4.1125427 0 0 0 -4.1797,-4.11216 z m 28.7188,0.11681 a 4.1799607,4.1125427 0 0 0 -4.1797,4.11217 4.1799607,4.1125427 0 0 0 4.1797,4.11412 4.1799607,4.1125427 0 0 0 4.1816,-4.11412 4.1799607,4.1125427 0 0 0 -4.1816,-4.11217 z m 0.1757,8.80639 a 4.1799607,4.1125427 0 0 0 -4.1797,4.11217 4.1799607,4.1125427 0 0 0 4.1797,4.11216 4.1799607,4.1125427 0 0 0 4.1797,-4.11216 4.1799607,4.1125427 0 0 0 -4.1797,-4.11217 z m -9.5996,0.12474 a 4.1799607,4.1125427 0 0 0 -4.1797,4.11215 4.1799607,4.1125427 0 0 0 4.1797,4.11216 4.1799607,4.1125427 0 0 0 4.1817,-4.11216 4.1799607,4.1125427 0 0 0 -4.1817,-4.11215 z m -9.4492,0.1663 a 4.1799607,4.1125427 0 0 0 -4.1797,4.11216 4.1799607,4.1125427 0 0 0 4.1797,4.11413 4.1799607,4.1125427 0 0 0 4.1797,-4.11413 4.1799607,4.1125427 0 0 0 -4.1797,-4.11216 z m -9.8047,0.22175 a 4.1799607,4.1125427 0 0 0 -4.1816,4.11215 4.1799607,4.1125427 0 0 0 4.1816,4.11414 4.1799607,4.1125427 0 0 0 4.1797,-4.11414 4.1799607,4.1125427 0 0 0 -4.1797,-4.11215 z m 10.4278,9.29937 a 4.1799607,4.1125427 0 0 0 -4.1797,4.11216 4.1799607,4.1125427 0 0 0 4.1797,4.11413 4.1799607,4.1125427 0 0 0 4.1796,-4.11413 4.1799607,4.1125427 0 0 0 -4.1796,-4.11216 z m 9.3027,0.0931 a 4.1799607,4.1125427 0 0 0 -4.1797,4.11216 4.1799607,4.1125427 0 0 0 4.1797,4.11215 4.1799607,4.1125427 0 0 0 4.1797,-4.11215 4.1799607,4.1125427 0 0 0 -4.1797,-4.11216 z m -19.3672,0.0495 a 4.1799607,4.1125427 0 0 0 -4.1797,4.11216 4.1799607,4.1125427 0 0 0 4.1797,4.11216 4.1799607,4.1125427 0 0 0 4.1797,-4.11216 4.1799607,4.1125427 0 0 0 -4.1797,-4.11216 z m 28.7188,0.11681 a 4.1799607,4.1125427 0 0 0 -4.1797,4.11216 4.1799607,4.1125427 0 0 0 4.1797,4.11216 4.1799607,4.1125427 0 0 0 4.1796,-4.11216 4.1799607,4.1125427 0 0 0 -4.1796,-4.11216 z m 0.3359,9.12119 a 4.1799607,4.1125427 0 0 0 -4.1797,4.11215 4.1799607,4.1125427 0 0 0 4.1797,4.11216 4.1799607,4.1125427 0 0 0 4.1797,-4.11216 4.1799607,4.1125427 0 0 0 -4.1797,-4.11215 z m -9.5977,0.12473 a 4.1799607,4.1125427 0 0 0 -4.1797,4.11216 4.1799607,4.1125427 0 0 0 4.1797,4.11215 4.1799607,4.1125427 0 0 0 4.1797,-4.11215 4.1799607,4.1125427 0 0 0 -4.1797,-4.11216 z m -9.4492,0.16631 a 4.1799607,4.1125427 0 0 0 -4.1816,4.11414 4.1799607,4.1125427 0 0 0 4.1816,4.11216 4.1799607,4.1125427 0 0 0 4.1797,-4.11216 4.1799607,4.1125427 0 0 0 -4.1797,-4.11414 z m -9.8066,0.22174 a 4.1799607,4.1125427 0 0 0 -4.1797,4.11414 4.1799607,4.1125427 0 0 0 4.1797,4.11216 4.1799607,4.1125427 0 0 0 4.1797,-4.11216 4.1799607,4.1125427 0 0 0 -4.1797,-4.11414 z m 10.4277,9.30135 a 4.1799607,4.1125427 0 0 0 -4.1797,4.11216 4.1799607,4.1125427 0 0 0 4.1797,4.11217 4.1799607,4.1125427 0 0 0 4.1797,-4.11217 4.1799607,4.1125427 0 0 0 -4.1797,-4.11216 z m 9.3027,0.091 a 4.1799607,4.1125427 0 0 0 -4.1796,4.11216 4.1799607,4.1125427 0 0 0 4.1796,4.11413 4.1799607,4.1125427 0 0 0 4.1797,-4.11413 4.1799607,4.1125427 0 0 0 -4.1797,-4.11216 z m -19.3671,0.0495 a 4.1799607,4.1125427 0 0 0 -4.1797,4.11216 4.1799607,4.1125427 0 0 0 4.1797,4.11216 4.1799607,4.1125427 0 0 0 4.1796,-4.11216 4.1799607,4.1125427 0 0 0 -4.1796,-4.11216 z m 28.7207,0.11681 a 4.1799607,4.1125427 0 0 0 -4.1797,4.11215 4.1799607,4.1125427 0 0 0 4.1797,4.11217 4.1799607,4.1125427 0 0 0 4.1796,-4.11217 4.1799607,4.1125427 0 0 0 -4.1796,-4.11215 z" />
    <rect
       style="display:inline;fill:#aa0000;fill-opacity:1;stroke-width:2.41092"
       id="rect15-3"
       width="76"
       height="125.5"
       x="270.41397"
       y="318.77634" />
    <rect
       style="display:inline;fill:#800000;fill-opacity:1"
       id="rect17-7"
       width="69"
       height="12.5"
       x="272.91397"
       y="-443.27631"
       transform="scale(1,-1)" />
    <path
       id="rect18"
       style="display:inline;fill:#f9f9f9;fill-opacity:1;stroke-width:1.19729"
       d="m 271.53906,270.33985 v 38.25129 h 4.75 v -0.64508 h 70.37501 v -4.90262 h 0.25 v -32.70359 h -4.5 v 32.70359 h -66.12501 v -32.70359 z m 34.37501,37.86424 v 10.32131 h 10 v -10.32131 z" />
    <path
       id="path20-1"
       style="display:inline;opacity:0.65;fill:#f9f9f9;fill-opacity:1;stroke-width:1.57817"
       d="m 341.2266,270.4668 h -65.17382 l -0.38868,0.70313 16.74023,28.60546 32.80469,-0.39257 z" />
    <path
       id="path20"
       style="display:inline;opacity:0.5;fill:#f9f9f9;fill-opacity:1"
       d="m 329.29493,270.32813 h -41.36329 l 10.56641,17.8125 20.93164,-0.24805 z" />
  </g>
</svg>
